<svg width="989" height="370" viewBox="0 0 989 370" fill="none" xmlns="http://www.w3.org/2000/svg">
<path d="M553.357 191V67.3636H604.43C613.686 67.3636 621.675 69.1747 628.396 72.7969C635.158 76.3788 640.37 81.3894 644.032 87.8288C647.694 94.228 649.526 101.674 649.526 110.165C649.526 118.698 647.654 126.163 643.911 132.562C640.209 138.921 634.916 143.852 628.034 147.353C621.152 150.854 612.982 152.605 603.524 152.605H572.011V129.061H597.97C602.478 129.061 606.241 128.276 609.259 126.707C612.318 125.137 614.632 122.944 616.202 120.126C617.771 117.269 618.556 113.949 618.556 110.165C618.556 106.342 617.771 103.042 616.202 100.265C614.632 97.4477 612.318 95.2744 609.259 93.745C606.201 92.2157 602.438 91.451 597.97 91.451H583.24V191H553.357ZM664.256 191V67.3636H694.138V166.732H745.573V191H664.256ZM835.84 67.3636H865.663V147.112C865.663 156.328 863.469 164.357 859.083 171.199C854.696 178 848.578 183.273 840.73 187.016C832.882 190.718 823.767 192.57 813.383 192.57C802.879 192.57 793.703 190.718 785.855 187.016C778.007 183.273 771.909 178 767.563 171.199C763.216 164.357 761.043 156.328 761.043 147.112V67.3636H790.926V144.516C790.926 148.782 791.851 152.585 793.703 155.925C795.594 159.266 798.23 161.882 801.611 163.773C804.992 165.665 808.916 166.611 813.383 166.611C817.85 166.611 821.754 165.665 825.095 163.773C828.475 161.882 831.111 159.266 833.003 155.925C834.895 152.585 835.84 148.782 835.84 144.516V67.3636ZM951.221 104.43C950.819 100.003 949.028 96.5623 945.848 94.1072C942.709 91.612 938.222 90.3643 932.386 90.3643C928.522 90.3643 925.303 90.8674 922.727 91.8736C920.151 92.8797 918.219 94.2682 916.931 96.0391C915.644 97.7696 914.98 99.7618 914.939 102.016C914.859 103.867 915.221 105.497 916.026 106.906C916.871 108.314 918.078 109.562 919.648 110.648C921.258 111.695 923.19 112.62 925.444 113.425C927.697 114.23 930.233 114.935 933.05 115.538L943.675 117.953C949.792 119.281 955.185 121.052 959.854 123.266C964.563 125.479 968.507 128.115 971.686 131.174C974.906 134.233 977.341 137.754 978.991 141.739C980.641 145.723 981.486 150.19 981.527 155.141C981.486 162.948 979.514 169.649 975.61 175.244C971.707 180.838 966.092 185.124 958.767 188.102C951.483 191.08 942.689 192.57 932.386 192.57C922.043 192.57 913.028 191.02 905.341 187.921C897.654 184.822 891.677 180.113 887.411 173.795C883.145 167.476 880.951 159.487 880.831 149.828H909.446C909.687 153.812 910.754 157.133 912.645 159.789C914.537 162.445 917.133 164.458 920.433 165.826C923.773 167.194 927.637 167.879 932.024 167.879C936.048 167.879 939.469 167.335 942.287 166.249C945.144 165.162 947.337 163.653 948.867 161.721C950.396 159.789 951.181 157.576 951.221 155.08C951.181 152.746 950.457 150.754 949.048 149.104C947.639 147.413 945.466 145.964 942.528 144.757C939.63 143.509 935.928 142.362 931.42 141.316L918.501 138.298C907.796 135.843 899.364 131.878 893.206 126.405C887.049 120.891 883.99 113.446 884.03 104.068C883.99 96.4214 886.042 89.7204 890.188 83.9652C894.333 78.21 900.068 73.7225 907.393 70.5028C914.718 67.2831 923.069 65.6733 932.446 65.6733C942.025 65.6733 950.336 67.3033 957.379 70.5632C964.462 73.7829 969.956 78.3106 973.86 84.1463C977.764 89.982 979.756 96.7434 979.836 104.43H951.221Z" fill="#1E1E1E"/>
<path d="M121.45 124.998C120.808 117.941 117.953 112.455 112.885 108.542C107.88 104.564 100.727 102.575 91.424 102.575C85.2649 102.575 80.1323 103.377 76.0263 104.981C71.9202 106.585 68.8407 108.798 66.7876 111.621C64.7346 114.38 63.676 117.556 63.6119 121.148C63.4835 124.1 64.061 126.698 65.3441 128.944C66.6914 131.189 68.6161 133.178 71.1183 134.91C73.6845 136.578 76.7641 138.054 80.3569 139.337C83.9497 140.62 87.9916 141.743 92.4826 142.705L109.42 146.555C119.172 148.672 127.769 151.495 135.211 155.023C142.718 158.552 149.005 162.754 154.074 167.63C159.206 172.506 163.088 178.12 165.718 184.472C168.348 190.823 169.696 197.945 169.76 205.836C169.696 218.282 166.552 228.965 160.329 237.882C154.106 246.8 145.156 253.633 133.479 258.381C121.867 263.128 107.848 265.502 91.424 265.502C74.9356 265.502 60.5644 263.032 48.3104 258.092C36.0563 253.152 26.529 245.645 19.7283 235.573C12.9277 225.5 9.43111 212.765 9.23864 197.367H54.8544C55.2393 203.719 56.9395 209.012 59.9549 213.246C62.9703 217.48 67.1084 220.688 72.3693 222.87C77.6944 225.051 83.8535 226.142 90.8466 226.142C97.2623 226.142 102.716 225.276 107.207 223.543C111.762 221.811 115.258 219.405 117.696 216.326C120.134 213.246 121.385 209.717 121.45 205.74C121.385 202.019 120.231 198.843 117.985 196.212C115.74 193.518 112.275 191.208 107.592 189.283C102.972 187.295 97.0698 185.466 89.8842 183.798L69.2898 178.986C52.224 175.073 38.783 168.753 28.967 160.028C19.1509 151.238 14.275 139.369 14.3391 124.42C14.275 112.231 17.547 101.548 24.1552 92.3739C30.7634 83.1994 39.9058 76.0459 51.5824 70.9134C63.259 65.7808 76.5716 63.2145 91.5202 63.2145C106.79 63.2145 120.038 65.8128 131.266 71.0096C142.557 76.1422 151.315 83.3598 157.538 92.6626C163.761 101.965 166.937 112.744 167.065 124.998H121.45ZM193.819 263V65.9091H331.244V104.596H241.456V145.015H324.218V183.798H241.456V224.313H331.244V263H193.819ZM528.816 65.9091V263H488.397L409.964 149.249H408.713V263H361.077V65.9091H402.073L479.639 179.467H481.275V65.9091H528.816Z" fill="#F87C2F"/>
<path d="M545.312 229.45V223.455H571.13V229.45H561.868V254H554.589V229.45H545.312ZM572.357 254V231.091H579.441V235.267H579.68C580.097 233.756 580.779 232.632 581.723 231.896C582.668 231.151 583.767 230.778 585.019 230.778C585.357 230.778 585.705 230.803 586.063 230.852C586.421 230.892 586.754 230.957 587.063 231.046V237.385C586.715 237.266 586.257 237.171 585.691 237.102C585.134 237.032 584.637 236.997 584.199 236.997C583.334 236.997 582.553 237.191 581.857 237.579C581.171 237.957 580.629 238.489 580.232 239.175C579.844 239.851 579.65 240.646 579.65 241.561V254H572.357ZM595.631 254.388C594.17 254.388 592.872 254.144 591.738 253.657C590.615 253.16 589.725 252.414 589.069 251.42C588.422 250.415 588.099 249.158 588.099 247.646C588.099 246.374 588.323 245.3 588.77 244.425C589.218 243.55 589.834 242.839 590.62 242.292C591.405 241.745 592.31 241.332 593.334 241.054C594.358 240.766 595.452 240.572 596.616 240.472C597.918 240.353 598.967 240.229 599.763 240.099C600.558 239.96 601.135 239.766 601.493 239.518C601.861 239.259 602.045 238.896 602.045 238.429V238.354C602.045 237.589 601.781 236.997 601.254 236.58C600.727 236.162 600.016 235.953 599.121 235.953C598.157 235.953 597.381 236.162 596.795 236.58C596.208 236.997 595.835 237.574 595.676 238.31L588.949 238.071C589.148 236.679 589.66 235.436 590.486 234.342C591.321 233.239 592.464 232.374 593.916 231.747C595.378 231.111 597.133 230.793 599.181 230.793C600.643 230.793 601.99 230.967 603.223 231.315C604.456 231.653 605.53 232.15 606.444 232.806C607.359 233.452 608.065 234.248 608.562 235.192C609.069 236.137 609.323 237.216 609.323 238.429V254H602.462V250.808H602.283C601.876 251.584 601.354 252.24 600.717 252.777C600.091 253.314 599.35 253.717 598.495 253.985C597.65 254.254 596.695 254.388 595.631 254.388ZM597.883 249.615C598.669 249.615 599.375 249.456 600.001 249.138C600.638 248.82 601.145 248.382 601.523 247.825C601.9 247.259 602.089 246.602 602.089 245.857V243.679C601.881 243.788 601.627 243.888 601.329 243.977C601.04 244.067 600.722 244.151 600.374 244.231C600.026 244.31 599.668 244.38 599.3 244.44C598.932 244.499 598.579 244.554 598.241 244.604C597.555 244.713 596.969 244.882 596.481 245.111C596.004 245.339 595.636 245.638 595.378 246.006C595.129 246.364 595.005 246.791 595.005 247.288C595.005 248.044 595.273 248.621 595.81 249.018C596.357 249.416 597.048 249.615 597.883 249.615ZM621.076 240.935V254H613.782V231.091H620.718V235.297H620.971C621.479 233.895 622.344 232.796 623.567 232.001C624.79 231.195 626.246 230.793 627.937 230.793C629.547 230.793 630.944 231.156 632.128 231.881C633.321 232.597 634.246 233.602 634.902 234.894C635.568 236.177 635.896 237.678 635.886 239.398V254H628.593V240.83C628.603 239.558 628.28 238.563 627.623 237.847C626.977 237.131 626.077 236.773 624.924 236.773C624.158 236.773 623.482 236.942 622.895 237.281C622.319 237.609 621.871 238.081 621.553 238.697C621.245 239.314 621.086 240.06 621.076 240.935ZM660.402 238.086L653.706 238.265C653.636 237.788 653.447 237.365 653.139 236.997C652.831 236.619 652.428 236.326 651.931 236.117C651.444 235.898 650.877 235.789 650.23 235.789C649.385 235.789 648.664 235.958 648.068 236.296C647.481 236.634 647.193 237.092 647.203 237.668C647.193 238.116 647.372 238.504 647.74 238.832C648.118 239.16 648.789 239.423 649.753 239.622L654.168 240.457C656.455 240.895 658.155 241.621 659.269 242.635C660.392 243.649 660.959 244.991 660.969 246.662C660.959 248.233 660.492 249.6 659.567 250.763C658.652 251.927 657.4 252.832 655.809 253.478C654.218 254.114 652.398 254.433 650.35 254.433C647.078 254.433 644.498 253.761 642.609 252.419C640.73 251.067 639.656 249.257 639.387 246.99L646.591 246.811C646.75 247.646 647.163 248.283 647.829 248.72C648.495 249.158 649.346 249.376 650.38 249.376C651.314 249.376 652.075 249.202 652.662 248.854C653.248 248.506 653.547 248.044 653.556 247.467C653.547 246.95 653.318 246.538 652.87 246.229C652.423 245.911 651.722 245.663 650.767 245.484L646.77 244.723C644.473 244.305 642.763 243.535 641.64 242.411C640.516 241.278 639.959 239.836 639.969 238.086C639.959 236.555 640.367 235.247 641.192 234.163C642.017 233.07 643.191 232.234 644.712 231.658C646.233 231.081 648.028 230.793 650.096 230.793C653.199 230.793 655.645 231.444 657.434 232.746C659.224 234.039 660.213 235.819 660.402 238.086ZM664.56 262.591V231.091H671.779V235.013H672.002C672.301 234.317 672.723 233.646 673.27 233C673.827 232.354 674.533 231.827 675.388 231.419C676.253 231.001 677.287 230.793 678.49 230.793C680.081 230.793 681.568 231.21 682.95 232.045C684.342 232.881 685.465 234.168 686.32 235.908C687.176 237.648 687.603 239.866 687.603 242.56C687.603 245.156 687.191 247.328 686.365 249.078C685.55 250.828 684.446 252.141 683.054 253.016C681.672 253.891 680.136 254.328 678.445 254.328C677.292 254.328 676.293 254.139 675.448 253.761C674.602 253.384 673.892 252.886 673.315 252.27C672.748 251.653 672.311 250.992 672.002 250.286H671.853V262.591H664.56ZM671.704 242.545C671.704 243.778 671.868 244.852 672.196 245.767C672.534 246.682 673.017 247.393 673.643 247.9C674.279 248.397 675.04 248.646 675.925 248.646C676.82 248.646 677.58 248.397 678.207 247.9C678.833 247.393 679.306 246.682 679.624 245.767C679.952 244.852 680.116 243.778 680.116 242.545C680.116 241.312 679.952 240.244 679.624 239.339C679.306 238.434 678.833 237.733 678.207 237.236C677.59 236.739 676.83 236.49 675.925 236.49C675.03 236.49 674.269 236.734 673.643 237.221C673.017 237.708 672.534 238.404 672.196 239.309C671.868 240.214 671.704 241.293 671.704 242.545ZM702.119 254.433C699.713 254.433 697.645 253.94 695.914 252.956C694.194 251.962 692.867 250.58 691.932 248.81C691.007 247.03 690.545 244.967 690.545 242.62C690.545 240.263 691.007 238.2 691.932 236.43C692.867 234.651 694.194 233.268 695.914 232.284C697.645 231.29 699.713 230.793 702.119 230.793C704.525 230.793 706.588 231.29 708.309 232.284C710.039 233.268 711.366 234.651 712.291 236.43C713.225 238.2 713.693 240.263 713.693 242.62C713.693 244.967 713.225 247.03 712.291 248.81C711.366 250.58 710.039 251.962 708.309 252.956C706.588 253.94 704.525 254.433 702.119 254.433ZM702.164 248.929C703.039 248.929 703.779 248.661 704.386 248.124C704.993 247.587 705.455 246.841 705.773 245.886C706.101 244.932 706.265 243.828 706.265 242.575C706.265 241.303 706.101 240.189 705.773 239.234C705.455 238.28 704.993 237.534 704.386 236.997C703.779 236.46 703.039 236.192 702.164 236.192C701.259 236.192 700.493 236.46 699.867 236.997C699.25 237.534 698.778 238.28 698.45 239.234C698.132 240.189 697.973 241.303 697.973 242.575C697.973 243.828 698.132 244.932 698.45 245.886C698.778 246.841 699.25 247.587 699.867 248.124C700.493 248.661 701.259 248.929 702.164 248.929ZM717.429 254V231.091H724.513V235.267H724.752C725.17 233.756 725.851 232.632 726.795 231.896C727.74 231.151 728.839 230.778 730.092 230.778C730.43 230.778 730.778 230.803 731.136 230.852C731.494 230.892 731.827 230.957 732.135 231.046V237.385C731.787 237.266 731.33 237.171 730.763 237.102C730.206 237.032 729.709 236.997 729.271 236.997C728.406 236.997 727.626 237.191 726.93 237.579C726.244 237.957 725.702 238.489 725.304 239.175C724.916 239.851 724.722 240.646 724.722 241.561V254H717.429ZM749.104 231.091V236.46H734.652V231.091H749.104ZM737.68 225.602H744.973V246.796C744.973 247.244 745.042 247.607 745.182 247.885C745.331 248.153 745.545 248.347 745.823 248.467C746.101 248.576 746.434 248.631 746.822 248.631C747.101 248.631 747.394 248.606 747.702 248.556C748.02 248.496 748.259 248.447 748.418 248.407L749.522 253.672C749.174 253.771 748.682 253.896 748.045 254.045C747.419 254.194 746.668 254.288 745.793 254.328C744.083 254.408 742.616 254.209 741.393 253.732C740.18 253.244 739.251 252.489 738.604 251.464C737.968 250.44 737.66 249.153 737.68 247.602V225.602ZM771.454 254.462C769.306 254.462 767.452 254.08 765.891 253.314C764.34 252.548 763.146 251.519 762.311 250.227C761.476 248.924 761.058 247.477 761.058 245.886C761.058 244.713 761.287 243.679 761.744 242.784C762.212 241.879 762.853 241.049 763.669 240.293C764.494 239.528 765.453 238.777 766.547 238.041L772.96 233.94C773.686 233.482 774.198 233 774.497 232.493C774.805 231.986 774.959 231.479 774.959 230.972C774.959 230.425 774.745 229.928 774.318 229.48C773.9 229.033 773.279 228.814 772.453 228.824C771.926 228.824 771.469 228.933 771.081 229.152C770.693 229.371 770.39 229.664 770.171 230.032C769.963 230.4 769.858 230.817 769.858 231.285C769.858 231.891 770.032 232.513 770.38 233.149C770.728 233.786 771.195 234.462 771.782 235.178C772.379 235.893 773.04 236.684 773.766 237.549L788.397 254H780.97L768.725 240.711C768.029 239.935 767.298 239.065 766.532 238.101C765.767 237.136 765.12 236.082 764.593 234.939C764.066 233.786 763.803 232.533 763.803 231.18C763.803 229.659 764.161 228.282 764.877 227.049C765.593 225.816 766.597 224.837 767.889 224.111C769.192 223.375 770.708 223.007 772.438 223.007C774.109 223.007 775.551 223.35 776.764 224.036C777.977 224.722 778.911 225.632 779.568 226.766C780.224 227.899 780.552 229.142 780.552 230.494C780.552 231.926 780.199 233.244 779.493 234.447C778.787 235.64 777.788 236.699 776.495 237.624L770.216 242.113C769.55 242.59 769.028 243.102 768.65 243.649C768.272 244.186 768.083 244.773 768.083 245.409C768.083 246.065 768.237 246.637 768.546 247.124C768.864 247.612 769.311 247.994 769.888 248.273C770.465 248.551 771.141 248.69 771.916 248.69C772.95 248.69 773.985 248.447 775.019 247.96C776.053 247.462 776.997 246.766 777.852 245.871C778.708 244.967 779.394 243.898 779.911 242.665C780.428 241.422 780.686 240.06 780.686 238.578H786.563C786.563 240.408 786.369 242.108 785.981 243.679C785.593 245.24 785.012 246.642 784.236 247.885C783.47 249.118 782.521 250.142 781.387 250.957C781.029 251.156 780.681 251.345 780.343 251.524C780.005 251.703 779.657 251.892 779.299 252.091C778.126 252.936 776.853 253.543 775.481 253.911C774.119 254.278 772.776 254.462 771.454 254.462ZM799.665 254V223.455H807.048V248.004H819.756V254H799.665ZM834.271 254.433C831.865 254.433 829.797 253.94 828.067 252.956C826.347 251.962 825.019 250.58 824.085 248.81C823.16 247.03 822.697 244.967 822.697 242.62C822.697 240.263 823.16 238.2 824.085 236.43C825.019 234.651 826.347 233.268 828.067 232.284C829.797 231.29 831.865 230.793 834.271 230.793C836.678 230.793 838.741 231.29 840.461 232.284C842.191 233.268 843.518 234.651 844.443 236.43C845.378 238.2 845.845 240.263 845.845 242.62C845.845 244.967 845.378 247.03 844.443 248.81C843.518 250.58 842.191 251.962 840.461 252.956C838.741 253.94 836.678 254.433 834.271 254.433ZM834.316 248.929C835.191 248.929 835.932 248.661 836.538 248.124C837.145 247.587 837.607 246.841 837.925 245.886C838.254 244.932 838.418 243.828 838.418 242.575C838.418 241.303 838.254 240.189 837.925 239.234C837.607 238.28 837.145 237.534 836.538 236.997C835.932 236.46 835.191 236.192 834.316 236.192C833.411 236.192 832.646 236.46 832.019 236.997C831.403 237.534 830.93 238.28 830.602 239.234C830.284 240.189 830.125 241.303 830.125 242.575C830.125 243.828 830.284 244.932 830.602 245.886C830.93 246.841 831.403 247.587 832.019 248.124C832.646 248.661 833.411 248.929 834.316 248.929ZM860.26 263.068C858.083 263.068 856.218 262.765 854.667 262.158C853.116 261.552 851.898 260.722 851.013 259.668C850.128 258.614 849.596 257.42 849.417 256.088L856.323 255.7C856.452 256.168 856.691 256.575 857.039 256.923C857.397 257.271 857.859 257.54 858.426 257.729C859.002 257.918 859.679 258.012 860.454 258.012C861.677 258.012 862.686 257.714 863.482 257.117C864.287 256.531 864.69 255.501 864.69 254.03V250.003H864.436C864.148 250.709 863.711 251.34 863.124 251.897C862.537 252.454 861.806 252.891 860.931 253.21C860.066 253.528 859.072 253.687 857.949 253.687C856.278 253.687 854.747 253.299 853.355 252.523C851.973 251.738 850.864 250.525 850.029 248.884C849.203 247.234 848.791 245.111 848.791 242.516C848.791 239.841 849.218 237.638 850.074 235.908C850.929 234.168 852.047 232.881 853.429 232.045C854.821 231.21 856.318 230.793 857.919 230.793C859.122 230.793 860.151 231.001 861.006 231.419C861.871 231.827 862.582 232.354 863.139 233C863.696 233.646 864.118 234.317 864.407 235.013H864.615V231.091H871.879V254.089C871.879 256.028 871.392 257.664 870.417 258.996C869.443 260.329 868.081 261.338 866.331 262.024C864.581 262.72 862.557 263.068 860.26 263.068ZM860.484 248.377C861.369 248.377 862.125 248.143 862.751 247.676C863.377 247.209 863.86 246.538 864.198 245.663C864.536 244.788 864.705 243.739 864.705 242.516C864.705 241.273 864.536 240.204 864.198 239.309C863.87 238.404 863.387 237.708 862.751 237.221C862.125 236.734 861.369 236.49 860.484 236.49C859.579 236.49 858.814 236.739 858.187 237.236C857.561 237.733 857.083 238.434 856.755 239.339C856.437 240.234 856.278 241.293 856.278 242.516C856.278 243.739 856.442 244.788 856.77 245.663C857.098 246.538 857.571 247.209 858.187 247.676C858.814 248.143 859.579 248.377 860.484 248.377ZM876.529 254V231.091H883.822V254H876.529ZM880.183 228.421C879.159 228.421 878.279 228.083 877.543 227.407C876.807 226.721 876.439 225.896 876.439 224.931C876.439 223.977 876.807 223.161 877.543 222.485C878.279 221.799 879.159 221.456 880.183 221.456C881.217 221.456 882.097 221.799 882.823 222.485C883.558 223.161 883.926 223.977 883.926 224.931C883.926 225.896 883.558 226.721 882.823 227.407C882.097 228.083 881.217 228.421 880.183 228.421ZM908.465 238.086L901.768 238.265C901.699 237.788 901.51 237.365 901.201 236.997C900.893 236.619 900.49 236.326 899.993 236.117C899.506 235.898 898.939 235.789 898.293 235.789C897.448 235.789 896.727 235.958 896.13 236.296C895.544 236.634 895.255 237.092 895.265 237.668C895.255 238.116 895.434 238.504 895.802 238.832C896.18 239.16 896.851 239.423 897.816 239.622L902.23 240.457C904.517 240.895 906.218 241.621 907.331 242.635C908.455 243.649 909.022 244.991 909.032 246.662C909.022 248.233 908.554 249.6 907.63 250.763C906.715 251.927 905.462 252.832 903.871 253.478C902.28 254.114 900.461 254.433 898.412 254.433C895.141 254.433 892.561 253.761 890.672 252.419C888.792 251.067 887.718 249.257 887.45 246.99L894.654 246.811C894.813 247.646 895.225 248.283 895.892 248.72C896.558 249.158 897.408 249.376 898.442 249.376C899.377 249.376 900.137 249.202 900.724 248.854C901.311 248.506 901.609 248.044 901.619 247.467C901.609 246.95 901.38 246.538 900.933 246.229C900.485 245.911 899.784 245.663 898.83 245.484L894.833 244.723C892.536 244.305 890.826 243.535 889.702 242.411C888.578 241.278 888.022 239.836 888.032 238.086C888.022 236.555 888.429 235.247 889.255 234.163C890.08 233.07 891.253 232.234 892.775 231.658C894.296 231.081 896.091 230.793 898.159 230.793C901.261 230.793 903.707 231.444 905.497 232.746C907.287 234.039 908.276 235.819 908.465 238.086ZM925.553 231.091V236.46H911.101V231.091H925.553ZM914.129 225.602H921.422V246.796C921.422 247.244 921.492 247.607 921.631 247.885C921.78 248.153 921.994 248.347 922.272 248.467C922.551 248.576 922.884 248.631 923.271 248.631C923.55 248.631 923.843 248.606 924.151 248.556C924.47 248.496 924.708 248.447 924.867 248.407L925.971 253.672C925.623 253.771 925.131 253.896 924.494 254.045C923.868 254.194 923.117 254.288 922.242 254.328C920.532 254.408 919.066 254.209 917.843 253.732C916.629 253.244 915.7 252.489 915.053 251.464C914.417 250.44 914.109 249.153 914.129 247.602V225.602ZM929.275 254V231.091H936.568V254H929.275ZM932.929 228.421C931.905 228.421 931.025 228.083 930.289 227.407C929.553 226.721 929.185 225.896 929.185 224.931C929.185 223.977 929.553 223.161 930.289 222.485C931.025 221.799 931.905 221.456 932.929 221.456C933.963 221.456 934.843 221.799 935.569 222.485C936.305 223.161 936.672 223.977 936.672 224.931C936.672 225.896 936.305 226.721 935.569 227.407C934.843 228.083 933.963 228.421 932.929 228.421ZM951.904 254.433C949.488 254.433 947.415 253.935 945.685 252.941C943.964 251.947 942.642 250.565 941.717 248.795C940.793 247.015 940.33 244.957 940.33 242.62C940.33 240.273 940.793 238.215 941.717 236.445C942.652 234.665 943.979 233.278 945.7 232.284C947.43 231.29 949.493 230.793 951.889 230.793C954.007 230.793 955.852 231.175 957.423 231.941C959.004 232.707 960.237 233.79 961.121 235.192C962.016 236.585 962.489 238.22 962.538 240.099H955.722C955.583 238.926 955.185 238.006 954.529 237.34C953.883 236.674 953.038 236.341 951.994 236.341C951.148 236.341 950.408 236.58 949.771 237.057C949.135 237.524 948.638 238.22 948.28 239.145C947.932 240.06 947.758 241.193 947.758 242.545C947.758 243.898 947.932 245.041 948.28 245.976C948.638 246.901 949.135 247.602 949.771 248.079C950.408 248.546 951.148 248.78 951.994 248.78C952.67 248.78 953.266 248.636 953.783 248.347C954.31 248.059 954.743 247.636 955.081 247.08C955.419 246.513 955.633 245.827 955.722 245.021H962.538C962.469 246.911 961.996 248.561 961.121 249.973C960.256 251.385 959.038 252.484 957.467 253.269C955.906 254.045 954.052 254.433 951.904 254.433ZM986.271 238.086L979.575 238.265C979.505 237.788 979.316 237.365 979.008 236.997C978.7 236.619 978.297 236.326 977.8 236.117C977.313 235.898 976.746 235.789 976.1 235.789C975.254 235.789 974.534 235.958 973.937 236.296C973.35 236.634 973.062 237.092 973.072 237.668C973.062 238.116 973.241 238.504 973.609 238.832C973.987 239.16 974.658 239.423 975.622 239.622L980.037 240.457C982.324 240.895 984.024 241.621 985.138 242.635C986.262 243.649 986.828 244.991 986.838 246.662C986.828 248.233 986.361 249.6 985.436 250.763C984.521 251.927 983.269 252.832 981.678 253.478C980.087 254.114 978.267 254.433 976.219 254.433C972.948 254.433 970.367 253.761 968.478 252.419C966.599 251.067 965.525 249.257 965.257 246.99L972.46 246.811C972.619 247.646 973.032 248.283 973.698 248.72C974.365 249.158 975.215 249.376 976.249 249.376C977.183 249.376 977.944 249.202 978.531 248.854C979.117 248.506 979.416 248.044 979.426 247.467C979.416 246.95 979.187 246.538 978.74 246.229C978.292 245.911 977.591 245.663 976.637 245.484L972.639 244.723C970.343 244.305 968.632 243.535 967.509 242.411C966.385 241.278 965.828 239.836 965.838 238.086C965.828 236.555 966.236 235.247 967.061 234.163C967.887 233.07 969.06 232.234 970.581 231.658C972.102 231.081 973.897 230.793 975.965 230.793C979.068 230.793 981.514 231.444 983.303 232.746C985.093 234.039 986.083 235.819 986.271 238.086Z" fill="#1E1E1E"/>
<rect x="17" y="300" width="511" height="32" fill="#1E1E1E"/>
<path d="M17.5593 362L20.7411 342.909H25.7749L25.228 346.277H25.4393C26.0193 345.159 26.8272 344.276 27.8629 343.63C28.907 342.984 30.0794 342.661 31.3803 342.661C32.6729 342.661 33.7253 342.988 34.5373 343.642C35.3576 344.289 35.8299 345.167 35.9542 346.277H36.1531C36.7165 345.184 37.5658 344.309 38.701 343.655C39.8362 342.992 41.1039 342.661 42.5043 342.661C44.2692 342.661 45.6198 343.228 46.5561 344.363C47.4924 345.498 47.7866 347.098 47.4386 349.161L45.3008 362H40.006L41.9947 350.205C42.1521 349.136 41.9947 348.341 41.5224 347.819C41.0501 347.288 40.3913 347.023 39.5462 347.023C38.585 347.023 37.7854 347.33 37.1474 347.943C36.5094 348.548 36.1158 349.347 35.9666 350.342L33.9904 362H28.8572L30.8707 350.093C31.0116 349.148 30.8583 348.403 30.4109 347.856C29.9717 347.301 29.313 347.023 28.4347 347.023C27.8546 347.023 27.3036 347.172 26.7816 347.471C26.2679 347.761 25.8329 348.171 25.4766 348.701C25.1203 349.223 24.8883 349.836 24.7805 350.54L22.8416 362H17.5593ZM58.0964 362.373C56.1492 362.373 54.5376 361.959 53.2615 361.13C51.9855 360.293 51.0865 359.133 50.5645 357.65C50.0507 356.158 49.9554 354.422 50.2786 352.442C50.5935 350.487 51.248 348.776 52.2424 347.309C53.2367 345.842 54.5003 344.703 56.0332 343.891C57.5661 343.071 59.2937 342.661 61.2161 342.661C63.155 342.661 64.7625 343.079 66.0385 343.916C67.3146 344.744 68.2136 345.904 68.7356 347.396C69.2576 348.887 69.3571 350.623 69.0339 352.604C68.7108 354.551 68.0479 356.258 67.0453 357.724C66.0427 359.191 64.7791 360.335 63.2544 361.155C61.7298 361.967 60.0105 362.373 58.0964 362.373ZM58.6184 358.271C59.5133 358.271 60.3046 358.019 60.9924 357.513C61.6884 356.999 62.2643 356.303 62.72 355.425C63.184 354.538 63.5072 353.536 63.6895 352.417C63.8717 351.315 63.8842 350.337 63.7267 349.484C63.5693 348.622 63.2379 347.943 62.7324 347.446C62.2353 346.949 61.5517 346.7 60.6816 346.7C59.7868 346.7 58.9913 346.957 58.2953 347.471C57.5993 347.976 57.0234 348.672 56.5676 349.559C56.1119 350.445 55.7929 351.452 55.6106 352.579C55.4366 353.673 55.4242 354.65 55.5733 355.512C55.7225 356.366 56.0498 357.041 56.5552 357.538C57.0607 358.027 57.7484 358.271 58.6184 358.271ZM91.2756 342.909L81.4194 362H75.4535L71.9609 342.909H77.3551L79.0455 356.569H79.2443L85.4712 342.909H91.2756ZM90.8033 362L93.9851 342.909H99.2798L96.098 362H90.8033ZM97.1793 340.423C96.3922 340.423 95.7417 340.162 95.228 339.64C94.7225 339.11 94.5154 338.48 94.6065 337.751C94.6977 337.005 95.054 336.376 95.6754 335.862C96.2969 335.34 97.0012 335.079 97.7884 335.079C98.5755 335.079 99.2177 335.34 99.7148 335.862C100.212 336.376 100.419 337.005 100.336 337.751C100.253 338.48 99.9013 339.11 99.2798 339.64C98.6667 340.162 97.9665 340.423 97.1793 340.423ZM107.498 350.963L105.659 362H100.377L103.559 342.909H108.592L108.045 346.277H108.257C108.862 345.159 109.715 344.276 110.817 343.63C111.927 342.984 113.191 342.661 114.608 342.661C115.934 342.661 117.04 342.951 117.926 343.531C118.821 344.111 119.451 344.935 119.816 346.004C120.188 347.073 120.251 348.353 120.002 349.844L117.964 362H112.669L114.546 350.789C114.736 349.621 114.587 348.709 114.098 348.055C113.618 347.392 112.843 347.06 111.774 347.06C111.061 347.06 110.407 347.214 109.81 347.52C109.214 347.827 108.712 348.274 108.306 348.863C107.909 349.443 107.639 350.143 107.498 350.963ZM129.52 369.557C127.796 369.557 126.358 369.321 125.207 368.848C124.063 368.384 123.193 367.75 122.597 366.947C122.008 366.143 121.685 365.24 121.627 364.237L126.648 363.578C126.74 363.968 126.914 364.328 127.17 364.66C127.436 364.991 127.813 365.256 128.301 365.455C128.799 365.654 129.441 365.754 130.228 365.754C131.38 365.754 132.382 365.472 133.236 364.908C134.089 364.353 134.615 363.421 134.814 362.112L135.386 358.619H135.162C134.847 359.15 134.417 359.651 133.87 360.123C133.331 360.596 132.672 360.981 131.893 361.279C131.123 361.577 130.232 361.727 129.221 361.727C127.779 361.727 126.528 361.395 125.468 360.732C124.415 360.061 123.653 359.038 123.181 357.662C122.717 356.279 122.659 354.53 123.007 352.417C123.371 350.255 124.026 348.448 124.971 346.998C125.915 345.548 127.034 344.463 128.326 343.742C129.619 343.021 130.965 342.661 132.366 342.661C133.435 342.661 134.296 342.843 134.951 343.207C135.614 343.564 136.123 344.011 136.48 344.55C136.836 345.08 137.089 345.602 137.238 346.116H137.449L137.971 342.909H143.229L140.022 362.186C139.765 363.819 139.148 365.178 138.17 366.263C137.201 367.357 135.97 368.177 134.479 368.724C132.987 369.279 131.334 369.557 129.52 369.557ZM131.508 357.749C132.353 357.749 133.112 357.538 133.783 357.115C134.462 356.685 135.03 356.071 135.485 355.276C135.941 354.472 136.26 353.511 136.442 352.392C136.625 351.274 136.621 350.304 136.43 349.484C136.248 348.655 135.891 348.013 135.361 347.558C134.839 347.102 134.151 346.874 133.298 346.874C132.42 346.874 131.649 347.11 130.986 347.582C130.323 348.046 129.772 348.693 129.333 349.521C128.902 350.35 128.6 351.307 128.426 352.392C128.243 353.494 128.235 354.447 128.401 355.251C128.575 356.047 128.919 356.664 129.433 357.103C129.946 357.534 130.638 357.749 131.508 357.749ZM159.769 369.557C158.045 369.557 156.607 369.321 155.456 368.848C154.312 368.384 153.442 367.75 152.846 366.947C152.257 366.143 151.934 365.24 151.876 364.237L156.897 363.578C156.989 363.968 157.163 364.328 157.419 364.66C157.685 364.991 158.062 365.256 158.551 365.455C159.048 365.654 159.69 365.754 160.477 365.754C161.629 365.754 162.631 365.472 163.485 364.908C164.338 364.353 164.864 363.421 165.063 362.112L165.635 358.619H165.411C165.096 359.15 164.666 359.651 164.119 360.123C163.58 360.596 162.921 360.981 162.142 361.279C161.372 361.577 160.481 361.727 159.47 361.727C158.028 361.727 156.777 361.395 155.717 360.732C154.664 360.061 153.902 359.038 153.43 357.662C152.966 356.279 152.908 354.53 153.256 352.417C153.62 350.255 154.275 348.448 155.22 346.998C156.164 345.548 157.283 344.463 158.575 343.742C159.868 343.021 161.214 342.661 162.615 342.661C163.684 342.661 164.545 342.843 165.2 343.207C165.863 343.564 166.372 344.011 166.729 344.55C167.085 345.08 167.338 345.602 167.487 346.116H167.698L168.22 342.909H173.478L170.271 362.186C170.014 363.819 169.397 365.178 168.419 366.263C167.45 367.357 166.219 368.177 164.728 368.724C163.236 369.279 161.583 369.557 159.769 369.557ZM161.757 357.749C162.602 357.749 163.361 357.538 164.032 357.115C164.711 356.685 165.279 356.071 165.734 355.276C166.19 354.472 166.509 353.511 166.691 352.392C166.874 351.274 166.87 350.304 166.679 349.484C166.497 348.655 166.14 348.013 165.61 347.558C165.088 347.102 164.4 346.874 163.547 346.874C162.669 346.874 161.898 347.11 161.235 347.582C160.572 348.046 160.021 348.693 159.582 349.521C159.151 350.35 158.849 351.307 158.675 352.392C158.493 353.494 158.484 354.447 158.65 355.251C158.824 356.047 159.168 356.664 159.682 357.103C160.195 357.534 160.887 357.749 161.757 357.749ZM183.16 362.373C181.213 362.373 179.601 361.959 178.325 361.13C177.049 360.293 176.15 359.133 175.628 357.65C175.114 356.158 175.019 354.422 175.342 352.442C175.657 350.487 176.312 348.776 177.306 347.309C178.3 345.842 179.564 344.703 181.097 343.891C182.63 343.071 184.357 342.661 186.28 342.661C188.218 342.661 189.826 343.079 191.102 343.916C192.378 344.744 193.277 345.904 193.799 347.396C194.321 348.887 194.421 350.623 194.097 352.604C193.774 354.551 193.111 356.258 192.109 357.724C191.106 359.191 189.843 360.335 188.318 361.155C186.793 361.967 185.074 362.373 183.16 362.373ZM183.682 358.271C184.577 358.271 185.368 358.019 186.056 357.513C186.752 356.999 187.328 356.303 187.783 355.425C188.247 354.538 188.571 353.536 188.753 352.417C188.935 351.315 188.948 350.337 188.79 349.484C188.633 348.622 188.301 347.943 187.796 347.446C187.299 346.949 186.615 346.7 185.745 346.7C184.85 346.7 184.055 346.957 183.359 347.471C182.663 347.976 182.087 348.672 181.631 349.559C181.175 350.445 180.856 351.452 180.674 352.579C180.5 353.673 180.488 354.65 180.637 355.512C180.786 356.366 181.113 357.041 181.619 357.538C182.124 358.027 182.812 358.271 183.682 358.271ZM204.625 362.373C202.678 362.373 201.066 361.959 199.79 361.13C198.514 360.293 197.615 359.133 197.093 357.65C196.579 356.158 196.484 354.422 196.807 352.442C197.122 350.487 197.776 348.776 198.771 347.309C199.765 345.842 201.029 344.703 202.562 343.891C204.094 343.071 205.822 342.661 207.744 342.661C209.683 342.661 211.291 343.079 212.567 343.916C213.843 344.744 214.742 345.904 215.264 347.396C215.786 348.887 215.885 350.623 215.562 352.604C215.239 354.551 214.576 356.258 213.574 357.724C212.571 359.191 211.307 360.335 209.783 361.155C208.258 361.967 206.539 362.373 204.625 362.373ZM205.147 358.271C206.042 358.271 206.833 358.019 207.521 357.513C208.217 356.999 208.793 356.303 209.248 355.425C209.712 354.538 210.035 353.536 210.218 352.417C210.4 351.315 210.412 350.337 210.255 349.484C210.098 348.622 209.766 347.943 209.261 347.446C208.764 346.949 208.08 346.7 207.21 346.7C206.315 346.7 205.52 346.957 204.824 347.471C204.128 347.976 203.552 348.672 203.096 349.559C202.64 350.445 202.321 351.452 202.139 352.579C201.965 353.673 201.953 354.65 202.102 355.512C202.251 356.366 202.578 357.041 203.084 357.538C203.589 358.027 204.277 358.271 205.147 358.271ZM224.449 362.311C222.991 362.311 221.735 361.938 220.683 361.192C219.639 360.438 218.893 359.332 218.446 357.874C218.007 356.407 217.965 354.609 218.321 352.479C218.686 350.292 219.341 348.473 220.285 347.023C221.23 345.565 222.348 344.475 223.641 343.754C224.934 343.025 226.28 342.661 227.68 342.661C228.741 342.661 229.599 342.843 230.253 343.207C230.916 343.564 231.426 344.011 231.782 344.55C232.138 345.08 232.387 345.602 232.528 346.116H232.689L234.293 336.545H239.575L235.349 362H230.129L230.639 358.942H230.415C230.083 359.473 229.644 359.999 229.097 360.521C228.559 361.035 227.904 361.461 227.134 361.801C226.371 362.141 225.476 362.311 224.449 362.311ZM226.786 358.097C227.631 358.097 228.393 357.865 229.073 357.401C229.752 356.929 230.324 356.27 230.788 355.425C231.252 354.58 231.575 353.59 231.757 352.455C231.948 351.319 231.952 350.333 231.77 349.496C231.587 348.66 231.231 348.013 230.701 347.558C230.179 347.102 229.487 346.874 228.625 346.874C227.755 346.874 226.984 347.11 226.313 347.582C225.65 348.055 225.099 348.709 224.66 349.546C224.229 350.383 223.923 351.353 223.741 352.455C223.558 353.565 223.546 354.547 223.703 355.4C223.861 356.245 224.196 356.908 224.71 357.389C225.224 357.861 225.916 358.097 226.786 358.097ZM256.441 362.373C254.486 362.373 252.866 361.975 251.581 361.18C250.297 360.376 249.394 359.241 248.872 357.774C248.358 356.299 248.271 354.555 248.611 352.542C248.942 350.578 249.609 348.854 250.612 347.371C251.623 345.888 252.891 344.732 254.415 343.903C255.94 343.075 257.638 342.661 259.511 342.661C260.771 342.661 261.91 342.864 262.929 343.27C263.957 343.667 264.81 344.272 265.489 345.084C266.169 345.888 266.633 346.895 266.881 348.104C267.138 349.314 267.134 350.731 266.869 352.355L266.633 353.809H250.525L251.035 350.528H262.171C262.295 349.766 262.245 349.09 262.022 348.502C261.798 347.914 261.425 347.454 260.903 347.123C260.381 346.783 259.739 346.613 258.977 346.613C258.198 346.613 257.469 346.804 256.789 347.185C256.11 347.566 255.538 348.067 255.074 348.689C254.618 349.302 254.324 349.969 254.191 350.69L253.607 353.946C253.442 354.949 253.475 355.781 253.707 356.444C253.947 357.107 254.361 357.604 254.95 357.936C255.538 358.259 256.284 358.42 257.187 358.42C257.775 358.42 258.326 358.338 258.84 358.172C259.362 358.006 259.826 357.762 260.232 357.439C260.638 357.107 260.969 356.697 261.226 356.208L266.061 356.531C265.614 357.708 264.934 358.735 264.023 359.614C263.111 360.484 262.013 361.163 260.729 361.652C259.453 362.133 258.024 362.373 256.441 362.373ZM275.902 350.963L274.062 362H268.78L271.962 342.909H276.996L276.449 346.277H276.66C277.265 345.159 278.118 344.276 279.22 343.63C280.331 342.984 281.594 342.661 283.011 342.661C284.337 342.661 285.443 342.951 286.33 343.531C287.225 344.111 287.854 344.935 288.219 346.004C288.592 347.073 288.654 348.353 288.405 349.844L286.367 362H281.072L282.949 350.789C283.14 349.621 282.99 348.709 282.502 348.055C282.021 347.392 281.246 347.06 280.177 347.06C279.465 347.06 278.81 347.214 278.214 347.52C277.617 347.827 277.116 348.274 276.71 348.863C276.312 349.443 276.043 350.143 275.902 350.963ZM299.166 362.373C297.21 362.373 295.59 361.975 294.306 361.18C293.022 360.376 292.119 359.241 291.597 357.774C291.083 356.299 290.996 354.555 291.335 352.542C291.667 350.578 292.334 348.854 293.337 347.371C294.347 345.888 295.615 344.732 297.14 343.903C298.664 343.075 300.363 342.661 302.236 342.661C303.495 342.661 304.634 342.864 305.654 343.27C306.681 343.667 307.535 344.272 308.214 345.084C308.893 345.888 309.358 346.895 309.606 348.104C309.863 349.314 309.859 350.731 309.594 352.355L309.358 353.809H293.25L293.759 350.528H304.896C305.02 349.766 304.97 349.09 304.746 348.502C304.523 347.914 304.15 347.454 303.628 347.123C303.106 346.783 302.464 346.613 301.701 346.613C300.922 346.613 300.193 346.804 299.514 347.185C298.834 347.566 298.263 348.067 297.799 348.689C297.343 349.302 297.049 349.969 296.916 350.69L296.332 353.946C296.166 354.949 296.199 355.781 296.431 356.444C296.672 357.107 297.086 357.604 297.674 357.936C298.263 358.259 299.008 358.42 299.911 358.42C300.5 358.42 301.051 358.338 301.565 358.172C302.087 358.006 302.551 357.762 302.957 357.439C303.363 357.107 303.694 356.697 303.951 356.208L308.786 356.531C308.338 357.708 307.659 358.735 306.747 359.614C305.836 360.484 304.738 361.163 303.454 361.652C302.178 362.133 300.748 362.373 299.166 362.373ZM311.467 362L314.649 342.909H319.782L319.223 346.24H319.422C319.969 345.055 320.702 344.16 321.622 343.555C322.55 342.942 323.548 342.636 324.617 342.636C324.882 342.636 325.16 342.652 325.45 342.685C325.748 342.71 326.013 342.752 326.245 342.81L325.45 347.52C325.218 347.437 324.886 347.371 324.456 347.321C324.033 347.263 323.631 347.234 323.25 347.234C322.479 347.234 321.763 347.404 321.1 347.744C320.437 348.075 319.878 348.539 319.422 349.136C318.974 349.733 318.68 350.42 318.539 351.199L316.762 362H311.467ZM332.308 369.557C330.584 369.557 329.147 369.321 327.995 368.848C326.851 368.384 325.981 367.75 325.385 366.947C324.796 366.143 324.473 365.24 324.415 364.237L329.437 363.578C329.528 363.968 329.702 364.328 329.959 364.66C330.224 364.991 330.601 365.256 331.09 365.455C331.587 365.654 332.229 365.754 333.016 365.754C334.168 365.754 335.17 365.472 336.024 364.908C336.877 364.353 337.403 363.421 337.602 362.112L338.174 358.619H337.95C337.636 359.15 337.205 359.651 336.658 360.123C336.119 360.596 335.46 360.981 334.682 361.279C333.911 361.577 333.02 361.727 332.009 361.727C330.568 361.727 329.316 361.395 328.256 360.732C327.203 360.061 326.441 359.038 325.969 357.662C325.505 356.279 325.447 354.53 325.795 352.417C326.159 350.255 326.814 348.448 327.759 346.998C328.703 345.548 329.822 344.463 331.114 343.742C332.407 343.021 333.754 342.661 335.154 342.661C336.223 342.661 337.084 342.843 337.739 343.207C338.402 343.564 338.912 344.011 339.268 344.55C339.624 345.08 339.877 345.602 340.026 346.116H340.237L340.759 342.909H346.017L342.81 362.186C342.553 363.819 341.936 365.178 340.958 366.263C339.989 367.357 338.758 368.177 337.267 368.724C335.775 369.279 334.122 369.557 332.308 369.557ZM334.296 357.749C335.141 357.749 335.9 357.538 336.571 357.115C337.25 356.685 337.818 356.071 338.274 355.276C338.729 354.472 339.048 353.511 339.231 352.392C339.413 351.274 339.409 350.304 339.218 349.484C339.036 348.655 338.68 348.013 338.149 347.558C337.627 347.102 336.939 346.874 336.086 346.874C335.208 346.874 334.437 347.11 333.774 347.582C333.111 348.046 332.56 348.693 332.121 349.521C331.69 350.35 331.388 351.307 331.214 352.392C331.032 353.494 331.023 354.447 331.189 355.251C331.363 356.047 331.707 356.664 332.221 357.103C332.734 357.534 333.426 357.749 334.296 357.749ZM349.149 369.159C348.469 369.159 347.848 369.105 347.285 368.998C346.721 368.898 346.257 368.77 345.892 368.612L347.757 364.66C348.345 364.85 348.88 364.95 349.36 364.958C349.849 364.966 350.296 364.842 350.703 364.585C351.109 364.328 351.481 363.906 351.821 363.317L352.293 362.51L348.714 342.909H354.083L355.699 356.954H355.898L362.224 342.909H368.028L357.103 364.063C356.565 365.099 355.927 365.998 355.189 366.76C354.46 367.523 353.594 368.111 352.592 368.525C351.597 368.948 350.45 369.159 349.149 369.159ZM369.691 362.323C368.854 362.323 368.166 362.033 367.628 361.453C367.097 360.873 366.857 360.169 366.907 359.34C366.965 358.52 367.309 357.828 367.938 357.265C368.576 356.693 369.31 356.407 370.138 356.407C370.934 356.407 371.605 356.693 372.152 357.265C372.699 357.836 372.939 358.528 372.873 359.34C372.831 359.887 372.653 360.388 372.338 360.844C372.032 361.292 371.642 361.652 371.17 361.925C370.698 362.191 370.205 362.323 369.691 362.323ZM380.116 362.323C379.279 362.323 378.591 362.033 378.052 361.453C377.522 360.873 377.282 360.169 377.332 359.34C377.39 358.52 377.733 357.828 378.363 357.265C379.001 356.693 379.735 356.407 380.563 356.407C381.359 356.407 382.03 356.693 382.577 357.265C383.123 357.836 383.364 358.528 383.297 359.34C383.256 359.887 383.078 360.388 382.763 360.844C382.456 361.292 382.067 361.652 381.595 361.925C381.122 362.191 380.629 362.323 380.116 362.323ZM390.54 362.323C389.704 362.323 389.016 362.033 388.477 361.453C387.947 360.873 387.707 360.169 387.756 359.34C387.814 358.52 388.158 357.828 388.788 357.265C389.426 356.693 390.159 356.407 390.988 356.407C391.783 356.407 392.455 356.693 393.001 357.265C393.548 357.836 393.789 358.528 393.722 359.34C393.681 359.887 393.503 360.388 393.188 360.844C392.881 361.292 392.492 361.652 392.02 361.925C391.547 362.191 391.054 362.323 390.54 362.323Z" fill="#1E1E1E"/>
</svg>
